<svg width="48" height="48" viewBox="0 0 48 48" fill="none" xmlns="http://www.w3.org/2000/svg">
<path d="M32.38 4H15.62C8.34 4 4 8.34 4 15.62V32.36C4 39.66 8.34 44 15.62 44H32.36C39.64 44 43.98 39.66 43.98 32.38V15.62C44 8.34 39.66 4 32.38 4ZM32.74 29.26L28.3 33.7C27.22 34.78 25.82 35.3 24.42 35.3C23.02 35.3 21.6 34.76 20.54 33.7C18.4 31.56 18.4 28.06 20.54 25.92L23.36 23.1C23.94 22.52 24.9 22.52 25.48 23.1C26.06 23.68 26.06 24.64 25.48 25.22L22.66 28.04C21.68 29.02 21.68 30.6 22.66 31.58C23.64 32.56 25.22 32.56 26.2 31.58L30.64 27.14C31.86 25.92 32.54 24.28 32.54 22.54C32.54 20.8 31.86 19.18 30.64 17.94C28.18 15.48 23.9 15.48 21.44 17.94L16.58 22.8C14.5 24.88 14.5 28.28 16.58 30.38C17.16 30.96 17.16 31.92 16.58 32.5C16 33.08 15.04 33.08 14.46 32.5C11.2 29.24 11.2 23.94 14.46 20.68L19.3 15.84C21.1 14.04 23.48 13.06 26.02 13.06C28.56 13.06 30.94 14.04 32.74 15.84C34.54 17.64 35.52 20.02 35.52 22.56C35.52 25.1 34.54 27.48 32.74 29.26Z" fill="black"/>
</svg>
